<svg width="22" height="23" viewBox="0 0 22 23" fill="none" xmlns="http://www.w3.org/2000/svg">
<g clip-path="url(#clip0_915_718)">
<path d="M3.52917 2.8877C4.13215 3.50991 4.85403 4.0046 5.65193 4.34237C6.44983 4.68014 7.30748 4.85411 8.17392 4.85395C9.04856 4.85453 9.91424 4.67772 10.7186 4.3342" stroke="white" stroke-linecap="round" stroke-linejoin="round"/>
<path d="M6.87502 8.75016C9.02663 8.75016 10.7709 7.00594 10.7709 4.85433C10.7709 2.70272 9.02663 0.958496 6.87502 0.958496C4.72341 0.958496 2.97919 2.70272 2.97919 4.85433C2.97919 7.00594 4.72341 8.75016 6.87502 8.75016Z" stroke="white" stroke-linecap="round" stroke-linejoin="round"/>
<path d="M10.0833 10.9837C9.1078 10.4205 8.00122 10.124 6.87479 10.124C5.74837 10.1241 4.6418 10.4206 3.66632 10.9839C2.69084 11.5472 1.88083 12.3573 1.3177 13.3328C0.754575 14.3084 0.458181 15.415 0.458313 16.5414V17.4581H8.70831" stroke="white" stroke-linecap="round" stroke-linejoin="round"/>
<path d="M20.625 13.7915H11.4584C10.9521 13.7915 10.5417 14.2019 10.5417 14.7082V21.1248C10.5417 21.6311 10.9521 22.0415 11.4584 22.0415H20.625C21.1313 22.0415 21.5417 21.6311 21.5417 21.1248V14.7082C21.5417 14.2019 21.1313 13.7915 20.625 13.7915Z" stroke="white" stroke-linecap="round" stroke-linejoin="round"/>
<path d="M18.3333 17.2292C18.3333 17.1684 18.3092 17.1101 18.2662 17.0671C18.2232 17.0241 18.1649 17 18.1042 17H16.9583V15.8542C16.9583 15.7934 16.9342 15.7351 16.8912 15.6921C16.8482 15.6491 16.7899 15.625 16.7292 15.625H15.3542C15.2934 15.625 15.2351 15.6491 15.1921 15.6921C15.1491 15.7351 15.125 15.7934 15.125 15.8542V17H13.9792C13.9184 17 13.8601 17.0241 13.8171 17.0671C13.7741 17.1101 13.75 17.1684 13.75 17.2292V18.6042C13.75 18.6649 13.7741 18.7232 13.8171 18.7662C13.8601 18.8092 13.9184 18.8333 13.9792 18.8333H15.125V19.9792C15.125 20.0399 15.1491 20.0982 15.1921 20.1412C15.2351 20.1842 15.2934 20.2083 15.3542 20.2083H16.7292C16.7899 20.2083 16.8482 20.1842 16.8912 20.1412C16.9342 20.0982 16.9583 20.0399 16.9583 19.9792V18.8333H18.1042C18.1649 18.8333 18.2232 18.8092 18.2662 18.7662C18.3092 18.7232 18.3333 18.6649 18.3333 18.6042V17.2292Z" stroke="white" stroke-linecap="round" stroke-linejoin="round"/>
<path d="M14.2083 13.7918V12.8752C14.2083 12.632 14.3049 12.3989 14.4768 12.227C14.6487 12.0551 14.8819 11.9585 15.125 11.9585H16.9583C17.2014 11.9585 17.4346 12.0551 17.6065 12.227C17.7784 12.3989 17.875 12.632 17.875 12.8752V13.7918" stroke="white" stroke-linecap="round" stroke-linejoin="round"/>
<path d="M4.125 10.7427V13.7915" stroke="white" stroke-linecap="round" stroke-linejoin="round"/>
<path d="M4.12498 15.6248C4.63124 15.6248 5.04165 15.2144 5.04165 14.7082C5.04165 14.2019 4.63124 13.7915 4.12498 13.7915C3.61872 13.7915 3.20831 14.2019 3.20831 14.7082C3.20831 15.2144 3.61872 15.6248 4.12498 15.6248Z" stroke="white" stroke-linecap="round" stroke-linejoin="round"/>
<path d="M6.875 10.125V17.4583" stroke="white" stroke-linecap="round" stroke-linejoin="round"/>
<path d="M10.0833 10.9829V12.4166" stroke="white" stroke-linecap="round" stroke-linejoin="round"/>
<path d="M10.5416 12.4963C10.3945 12.4438 10.2395 12.4169 10.0833 12.4165V12.4165C9.71864 12.4165 9.3689 12.5614 9.11104 12.8192C8.85318 13.0771 8.70831 13.4268 8.70831 13.7915V15.6248" stroke="white" stroke-linecap="round" stroke-linejoin="round"/>
</g>
<defs>
<clipPath id="clip0_915_718">
<rect width="22" height="22" fill="white" transform="translate(0 0.5)"/>
</clipPath>
</defs>
</svg>
