<svg width="71" height="71" viewBox="0 0 71 71" fill="none" xmlns="http://www.w3.org/2000/svg">
<g clip-path="url(#clip0_23_24)">
<path d="M35.5199 0.350963C21.2993 0.348402 8.47807 8.91402 3.03621 22.0523C-2.40462 35.1912 0.604916 50.3136 10.6635 60.3661C24.3919 74.0944 46.6489 74.0944 60.3768 60.3661C74.1046 46.6388 74.1046 24.3817 60.3768 10.6534C53.7989 4.03811 44.8486 0.328427 35.5199 0.350963V0.350963ZM35.5199 67.3983C17.9405 67.3983 3.63187 53.0891 3.63187 35.5097C3.63187 17.9303 17.9405 3.62171 35.5199 3.62171C53.0993 3.62171 67.4084 17.9303 67.4084 35.5097C67.4084 53.0891 53.0993 67.3983 35.5199 67.3983Z" fill="#75BD2C"/>
<path d="M52.2327 24.7008L31.1213 44.88L19.6087 33.3837C18.972 32.7471 17.94 32.7471 17.3029 33.3837C16.6662 34.0208 16.6662 35.0529 17.3029 35.69L29.9438 48.331C30.2506 48.6393 30.6696 48.8104 31.1049 48.8048C31.527 48.8089 31.9331 48.6439 32.2333 48.3469L54.4893 27.0722C55.1347 26.4468 55.1557 25.4183 54.537 24.7674C53.9172 24.1169 52.8893 24.0872 52.2327 24.7008V24.7008Z" fill="#75BD2C"/>
</g>
<defs>
<clipPath id="clip0_23_24">
<rect width="71" height="71" fill="white"/>
</clipPath>
</defs>
</svg>
