<svg width="11" height="11" viewBox="0 0 11 11" fill="none" xmlns="http://www.w3.org/2000/svg">
<g clip-path="url(#clip0_39_28)">
<path d="M1.7333 8.66667C1.49497 8.66667 1.29102 8.58188 1.12144 8.4123C0.951572 8.24244 0.866638 8.03834 0.866638 7.8V2.6C0.866638 2.36167 0.951572 2.15772 1.12144 1.98814C1.29102 1.81827 1.49497 1.73334 1.7333 1.73334H4.3333L5.19997 2.6H8.66664C8.90497 2.6 9.10907 2.68494 9.27894 2.8548C9.44852 3.02438 9.53331 3.22834 9.53331 3.46667H4.84247L3.97581 2.6H1.7333V7.8L2.7733 4.33334H10.1833L9.06747 8.04917C9.00969 8.23695 8.90324 8.38688 8.7481 8.49897C8.59268 8.61077 8.42108 8.66667 8.2333 8.66667H1.7333ZM2.6433 7.8H8.2333L9.0133 5.2H3.4233L2.6433 7.8ZM2.6433 7.8L3.4233 5.2L2.6433 7.8ZM1.7333 3.46667V2.6V3.46667Z" fill="#9A73AD"/>
</g>
<defs>
<clipPath id="clip0_39_28">
<rect width="10.4" height="10.4" fill="white"/>
</clipPath>
</defs>
</svg>
