<svg width="22" height="23" viewBox="0 0 22 23" fill="none" xmlns="http://www.w3.org/2000/svg">
<path d="M19.8863 6.0357L11.178 2.36892C11.1216 2.34522 11.0612 2.33301 11 2.33301C10.9389 2.33301 10.8785 2.34522 10.8221 2.36892L2.11379 6.0357C2.03068 6.07073 1.95975 6.12949 1.90987 6.20463C1.86 6.27977 1.83339 6.36795 1.83337 6.45813V16.5414C1.83339 16.6316 1.86 16.7198 1.90988 16.795C1.95975 16.8701 2.03068 16.9289 2.11379 16.9639L10.8221 20.6306C10.8784 20.6543 10.9389 20.6665 11 20.6665C11.0611 20.6665 11.1216 20.6543 11.1779 20.6306L19.8863 16.964C19.9694 16.9289 20.0403 16.8702 20.0902 16.795C20.1401 16.7199 20.1667 16.6317 20.1667 16.5415V6.45813C20.1667 6.36795 20.1401 6.27977 20.0902 6.20463C20.0403 6.12949 19.9694 6.07073 19.8863 6.0357ZM11 9.62751L7.56704 8.18204L15.0482 5.03208C15.062 5.02546 15.0754 5.01815 15.0884 5.01017L18.5272 6.45822L11 9.62751ZM11 3.28871L13.9133 4.51534L6.46794 7.65017C6.44301 7.66101 6.41909 7.67405 6.39648 7.68914L3.47285 6.45813L11 3.28871ZM2.75003 7.14842L10.5417 10.4291V19.5178L2.75003 16.2371V7.14842ZM11.4584 19.5178V10.4291L19.25 7.14842V16.2371L11.4584 19.5178Z" fill="white"/>
</svg>
